<svg viewBox="0 0 30 33" xmlns="http://www.w3.org/2000/svg" fill-rule="evenodd" clip-rule="evenodd" stroke-linejoin="round" stroke-miterlimit="2"><path d="M11.253 6.098h6.815V4.674a1.24 1.24 0 00-1.24-1.24h-4.336a1.24 1.24 0 00-1.239 1.24v1.424zm18.028 1.24c0 .684-.555 1.238-1.24 1.238H26.76l-1.073 13.91a1.24 1.24 0 01-2.47-.19l1.057-13.72H5.048l1.494 19.376a2.466 2.466 0 002.467 2.245h11.303c1.291 0 2.352-.954 2.468-2.219a1.239 1.239 0 112.467.225c-.232 2.55-2.354 4.472-4.935 4.472H9.009a4.94 4.94 0 01-3.341-1.296 4.945 4.945 0 01-1.594-3.21l-.002-.017-1.51-19.576H1.28a1.239 1.239 0 110-2.478h7.496V4.674A3.721 3.721 0 0112.492.956h4.337a3.721 3.721 0 013.717 3.718v1.424h7.496a1.24 1.24 0 011.239 1.24zM9.03 11.055a1.239 1.239 0 00-1.184 1.292l.62 14.182a1.24 1.24 0 102.475-.108l-.62-14.183a1.24 1.24 0 00-1.291-1.183zm9.967 1.183l-.62 14.183a1.239 1.239 0 002.476.108l.62-14.182a1.239 1.239 0 00-2.476-.109zm-4.338-1.185c.685 0 1.24.555 1.24 1.24v14.182a1.239 1.239 0 11-2.479 0V12.293a1.24 1.24 0 011.24-1.239z" fill="#b40000" fill-rule="nonzero"/></svg>