<svg viewBox="0 0 25 25" xmlns="http://www.w3.org/2000/svg" fill-rule="evenodd" clip-rule="evenodd" stroke-linejoin="round" stroke-miterlimit="2"><path d="M24.201 7.133c-.057-1.283-.264-2.166-.562-2.93a5.896 5.896 0 00-1.397-2.144A5.946 5.946 0 0020.104.667c-.77-.298-1.648-.505-2.932-.562C15.88.044 15.468.029 12.188.029 8.907.03 8.496.044 7.208.1 5.924.157 5.04.365 4.276.662a5.898 5.898 0 00-2.143 1.397A5.949 5.949 0 00.741 4.197C.443 4.967.236 5.845.179 7.13.118 8.422.104 8.833.104 12.114c0 3.28.014 3.69.07 4.98.057 1.283.265 2.166.562 2.93a5.958 5.958 0 001.397 2.144 5.95 5.95 0 002.139 1.393c.77.297 1.647.505 2.931.561 1.289.057 1.7.071 4.98.071 3.28 0 3.691-.014 4.98-.071 1.284-.056 2.167-.264 2.931-.561a6.18 6.18 0 003.536-3.536c.297-.77.505-1.648.562-2.932.056-1.288.07-1.699.07-4.98 0-3.28-.005-3.69-.061-4.98zM22.025 17c-.052 1.18-.25 1.818-.415 2.242a4.008 4.008 0 01-2.294 2.295c-.425.165-1.067.363-2.243.415-1.274.056-1.656.07-4.88.07-3.225 0-3.612-.014-4.882-.07-1.18-.052-1.817-.25-2.242-.415-.524-.194-1-.5-1.387-.902a3.759 3.759 0 01-.902-1.388c-.165-.425-.363-1.067-.415-2.242-.057-1.275-.071-1.657-.071-4.881s.014-3.611.07-4.88c.053-1.181.25-1.818.416-2.243.193-.524.5-1 .906-1.388a3.752 3.752 0 011.388-.901c.425-.166 1.067-.364 2.242-.416 1.275-.056 1.657-.07 4.88-.07 3.23 0 3.612.014 4.882.07 1.18.052 1.817.25 2.242.416.524.193 1 .5 1.388.901.401.392.708.864.902 1.388.165.425.363 1.067.415 2.242.057 1.275.07 1.657.07 4.881s-.013 3.602-.07 4.876z" fill="#030404" fill-rule="nonzero"/><path d="M12.188 5.906a6.209 6.209 0 00-6.208 6.208 6.209 6.209 0 006.208 6.207 6.209 6.209 0 006.207-6.207 6.209 6.209 0 00-6.207-6.208zm0 10.234a4.027 4.027 0 110-8.054 4.027 4.027 0 010 8.054zM20.09 5.66a1.45 1.45 0 11-2.899 0 1.45 1.45 0 012.899 0z" fill="#030404" fill-rule="nonzero"/></svg>