<svg viewBox="0 0 43 45" xmlns="http://www.w3.org/2000/svg" fill-rule="evenodd" clip-rule="evenodd" stroke-linejoin="round" stroke-miterlimit="2"><path d="M38.345 27.61c-.68 2.693-4.178 6.041-6.954 6.66a51.05 51.05 0 01-10.963.887.26.26 0 00-.194.078l-3.408 3.499-3.626 3.721a.424.424 0 01-.73-.293V34.53a.263.263 0 00-.215-.257l-.001-.002c-2.778-.619-6.272-3.967-6.954-6.66a36.576 36.576 0 010-15.705c.682-2.69 4.176-6.04 6.954-6.66a51.005 51.005 0 0119.137 0c2.778.62 6.274 3.97 6.954 6.66a36.576 36.576 0 010 15.706M42.04 11.07l-.012-.049c-1.022-4.129-5.625-8.56-9.854-9.48l-.047-.009a54.688 54.688 0 00-20.61 0l-.048.008c-4.226.922-8.83 5.352-9.852 9.481l-.012.049a40.335 40.335 0 000 17.378l.012.05c.978 3.952 5.24 8.178 9.309 9.34v4.61c0 1.667 2.033 2.485 3.189 1.282l4.67-4.853c1.011.057 2.025.089 3.038.089 3.442 0 6.886-.326 10.304-.977l.047-.012c4.23-.921 8.832-5.35 9.854-9.479l.012-.05a40.335 40.335 0 000-17.378" fill="#030404" fill-rule="nonzero"/><path d="M27.876 31.134c-.428-.128-.835-.215-1.211-.373-3.917-1.624-7.521-3.72-10.376-6.934-1.622-1.826-2.893-3.89-3.969-6.072-.508-1.035-.938-2.11-1.374-3.18-.4-.974.189-1.981.806-2.715.582-.69 1.33-1.216 2.137-1.606.632-.304 1.255-.129 1.716.407.997 1.157 1.913 2.374 2.654 3.714.457.826.331 1.835-.495 2.397-.2.135-.384.296-.572.45-.162.135-.317.272-.43.454-.205.335-.215.73-.083 1.094 1.02 2.801 2.738 4.979 5.556 6.151.451.188.904.407 1.425.346.87-.102 1.152-1.057 1.762-1.555.596-.487 1.357-.493 1.999-.087.644.407 1.266.843 1.885 1.283.607.433 1.21.856 1.772 1.35.539.474.725 1.098.42 1.74-.555 1.181-1.363 2.161-2.528 2.788-.33.178-.723.235-1.094.348-.428-.128.371-.113 0 0M21.838 8.905c5.123.144 9.33 3.544 10.23 8.607.154.863.208 1.746.277 2.62.03.37-.18.72-.577.724-.41.004-.596-.34-.623-.707-.051-.73-.088-1.46-.189-2.184-.53-3.815-3.572-6.972-7.37-7.65-.572-.102-1.157-.129-1.736-.189-.366-.038-.845-.06-.927-.515-.068-.381.255-.686.618-.706.098-.005.199 0 .297 0 5.123.144-.098 0 0 0" fill="#030404" fill-rule="nonzero"/><path d="M29.615 18.996c-.008.064-.013.214-.05.356-.136.514-.917.58-1.096.06a1.578 1.578 0 01-.061-.494c-.002-1.086-.238-2.17-.785-3.113a5.773 5.773 0 00-2.428-2.28 6.97 6.97 0 00-1.937-.595c-.29-.046-.587-.077-.88-.118-.356-.049-.545-.275-.528-.626.015-.328.254-.565.614-.543 1.174.066 2.31.319 3.355.873 2.125 1.125 3.338 2.903 3.694 5.274.015.107.042.214.049.321.02.266.033.534.053.885-.008.064-.02-.351 0 0" fill="#030404" fill-rule="nonzero"/><path d="M26.437 18.872c-.428.008-.658-.229-.702-.622-.03-.274-.055-.552-.12-.818-.13-.525-.408-1.012-.85-1.334a2.237 2.237 0 00-.69-.333c-.315-.09-.643-.065-.956-.142-.34-.084-.528-.36-.475-.68a.615.615 0 01.65-.494c1.984.142 3.404 1.169 3.607 3.508.015.164.032.338-.005.497-.064.27-.263.405-.459.418-.428.008.196-.013 0 0" fill="#030404" fill-rule="nonzero"/></svg>