<svg viewBox="0 0 45 45" xmlns="http://www.w3.org/2000/svg" fill-rule="evenodd" clip-rule="evenodd" stroke-linejoin="round" stroke-miterlimit="2"><path d="M12.593 37.444l.667.408a18.081 18.081 0 009.429 2.643c9.99 0 18.12-8.128 18.12-18.12 0-9.993-8.13-18.122-18.12-18.122-9.993 0-18.121 8.13-18.121 18.121 0 3.48.988 6.862 2.86 9.776l.45.7-1.762 6.262 6.477-1.668zM.81 44.301l3.06-10.872A21.76 21.76 0 01.865 22.374C.866 10.34 10.656.55 22.69.55c12.03 0 21.82 9.79 21.82 21.824 0 12.033-9.79 21.823-21.822 21.823-3.751 0-7.422-.961-10.669-2.782L.81 44.301z" fill="#030404" fill-rule="nonzero"/><path d="M16.562 12.217l-1.416-.077a1.71 1.71 0 00-1.218.416c-.686.596-1.785 1.75-2.12 3.25-.503 2.24.274 4.982 2.284 7.725 2.011 2.74 5.759 7.129 12.385 9.002 2.136.603 3.816.196 5.112-.631a4.579 4.579 0 001.99-2.903l.225-1.056a.733.733 0 00-.41-.82l-4.786-2.205a.736.736 0 00-.889.218l-1.877 2.435a.54.54 0 01-.605.181c-1.286-.453-5.597-2.259-7.962-6.814a.543.543 0 01.068-.604l1.796-2.079a.731.731 0 00.12-.768l-2.062-4.826a.737.737 0 00-.635-.444" fill="#030404" fill-rule="nonzero"/></svg>