<svg viewBox="0 0 35 25" xmlns="http://www.w3.org/2000/svg" fill-rule="evenodd" clip-rule="evenodd" stroke-linejoin="round" stroke-miterlimit="2"><path d="M33.408 2.13C32.18.67 29.91.075 25.578.075H9.851c-4.43 0-6.738.635-7.962 2.19C.696 3.78.696 6.014.696 9.106v5.893c0 5.99 1.416 9.03 9.155 9.03h15.727c3.758 0 5.84-.525 7.187-1.814 1.38-1.322 1.97-3.48 1.97-7.216V9.106c0-3.26-.092-5.508-1.327-6.975zM22.549 12.867l-7.141 3.732a1.098 1.098 0 01-1.607-.973v-7.44a1.097 1.097 0 011.604-.975l7.141 3.708a1.098 1.098 0 01.003 1.948z" fill="#030404" fill-rule="nonzero"/></svg>